<svg enable-background="new 0 0 485.43 276.38" viewBox="0 0 485.43 276.38" xmlns="http://www.w3.org/2000/svg"><path d="m0 0h485.43v276.38h-485.43z" fill="none"/><path d="m205.51 70.87h-134.65v88.58c0 25.4 20.66 46.06 46.06 46.06h42.52c25.4 0 46.06-20.66 46.06-46.06zm-127.56 7.08h120.47v35.43h-42.52v42.52h-35.43v-42.52h-42.52zm120.47 81.5c0 21.49-17.48 38.98-38.98 38.98h-42.52c-21.49 0-38.98-17.48-38.98-38.98v-38.98h35.43v42.52h49.61v-42.52h35.43v38.98z"/><path d="m267.42 112.68h-16.5v14.88h-5.87v-35.44h23.49v5.11h-17.62v10.38h16.5z"/><path d="m289.44 127.56-.25-2.94c-1.38 2.33-4.17 3.49-8.35 3.49-3.17 0-5.48-.73-6.91-2.2-1.44-1.47-2.15-3.43-2.15-5.9 0-5.43 3.24-8.15 9.72-8.15h7.34v-2.03c0-3.58-1.82-5.37-5.47-5.37-1.79 0-3.16.35-4.13 1.04-.96.69-1.44 1.59-1.44 2.71v.41h-5.26v-.41c0-2.36.92-4.31 2.76-5.85s4.58-2.3 8.23-2.3c7.26 0 10.88 3.32 10.88 9.97v17.52h-4.97zm-7.08-3.8c2.19 0 3.82-.52 4.89-1.57 1.06-1.05 1.59-2.46 1.59-4.25v-1.97h-6.48c-3.27 0-4.91 1.28-4.91 3.85 0 2.63 1.63 3.94 4.91 3.94z"/><path d="m306.81 119.86v7.7h-5.57v-36.96h5.57v22.01l10.78-11.99h6.63l-10.24 11.32 10.9 15.62h-6.58l-8-11.55z"/><path d="m346.35 127.56-.3-3.54c-1.65 2.73-4.4 4.1-8.25 4.1-2.94 0-5.25-.89-6.94-2.66s-2.53-4.09-2.53-6.96v-17.87h5.57v16.55c0 3.98 1.87 5.97 5.62 5.97 4.12 0 6.18-2.38 6.18-7.14v-15.39h5.62v26.93h-4.97z"/><path d="m364.06 127.56h-5.62v-36.96h5.62z"/><path d="m385.78 122.9v4.66h-3.49c-3.71 0-6.27-.75-7.67-2.25s-2.1-3.64-2.1-6.4v-13.87h-3.7v-4.3h3.7v-6.88h5.62v6.88h6.94v4.3h-6.94v13.52c0 1.52.36 2.62 1.09 3.32.73.69 2.03 1.04 3.92 1.04h2.63z"/><path d="m406.74 127.56-.25-2.94c-1.38 2.33-4.17 3.49-8.35 3.49-3.17 0-5.48-.73-6.91-2.2-1.44-1.47-2.15-3.43-2.15-5.9 0-5.43 3.24-8.15 9.72-8.15h7.34v-2.03c0-3.58-1.82-5.37-5.47-5.37-1.79 0-3.16.35-4.13 1.04-.96.69-1.44 1.59-1.44 2.71v.41h-5.26v-.41c0-2.36.92-4.31 2.76-5.85s4.58-2.3 8.23-2.3c7.26 0 10.88 3.32 10.88 9.97v17.52h-4.97zm-7.09-3.8c2.19 0 3.82-.52 4.89-1.57 1.06-1.05 1.59-2.46 1.59-4.25v-1.97h-6.48c-3.27 0-4.91 1.28-4.91 3.85 0 2.63 1.64 3.94 4.91 3.94z"/><path d="m262.26 184.26-.3-3.54c-1.65 2.73-4.4 4.1-8.25 4.1-2.94 0-5.25-.89-6.94-2.66s-2.53-4.09-2.53-6.96v-17.87h5.57v16.55c0 3.98 1.87 5.97 5.62 5.97 4.12 0 6.18-2.38 6.18-7.14v-15.39h5.62v26.93h-4.97z"/><path d="m279.87 184.26h-5.57v-26.93h4.96l.3 3.59c1.59-2.77 4.32-4.15 8.2-4.15 4.12 0 6.94 1.69 8.46 5.06.67-1.59 1.8-2.83 3.37-3.72s3.45-1.34 5.64-1.34c3 0 5.33.94 6.99 2.81 1.65 1.87 2.48 4.36 2.48 7.47v17.21h-5.57v-15.9c0-4.42-1.87-6.63-5.62-6.63-4.15 0-6.23 2.38-6.23 7.14v15.39h-5.57v-15.9c0-4.42-1.87-6.63-5.62-6.63-4.15 0-6.23 2.38-6.23 7.14v15.39z"/><path d="m343.36 176.46c0 1.01-.16 1.97-.48 2.86s-.86 1.77-1.62 2.63-1.91 1.55-3.44 2.08c-1.54.52-3.38.78-5.54.78-2.19 0-4.08-.3-5.67-.91s-2.79-1.44-3.62-2.51c-.83-1.06-1.43-2.18-1.8-3.37-.37-1.18-.56-2.46-.56-3.85v-6.63c0-2.97.92-5.51 2.76-7.62s4.78-3.16 8.83-3.16c2.06 0 3.86.31 5.39.94 1.54.62 2.72 1.48 3.54 2.56.83 1.08 1.43 2.23 1.82 3.44s.58 2.5.58 3.85v4.81h-17.42v2.38c0 1.65.48 3.03 1.44 4.13s2.52 1.65 4.68 1.65c2.09 0 3.59-.41 4.51-1.24.91-.83 1.37-1.81 1.37-2.96v-.41h5.21v.55zm-17.22-9.72v1.52h12.05v-1.52c0-1.59-.48-2.94-1.44-4.05s-2.49-1.67-4.58-1.67c-2.13 0-3.66.56-4.61 1.67-.94 1.12-1.42 2.47-1.42 4.05z"/><path d="m355.1 184.26h-5.57v-26.93h4.96l.3 3.65c1.62-2.8 4.42-4.2 8.4-4.2 3.04 0 5.41.95 7.11 2.83 1.7 1.89 2.56 4.37 2.56 7.44v17.21h-5.62v-15.9c0-4.42-1.92-6.63-5.77-6.63-2.26 0-3.89.66-4.89 1.97-1 1.32-1.49 3.04-1.49 5.16v15.4z"/><path d="m385.38 184.26h-5.62v-26.93h5.62zm4.55-37.61-5.21 7.29h-4.56l3.59-7.29z"/></svg>