<?xml version="1.0" encoding="utf-8"?>
<!-- Generator: Adobe Illustrator 25.2.3, SVG Export Plug-In . SVG Version: 6.00 Build 0)  -->
<svg version="1.1" xmlns="http://www.w3.org/2000/svg" x="0px" y="0px"
     viewBox="0 0 485.43 276.38" style="enable-background:new 0 0 485.43 276.38;" xml:space="preserve">
<style type="text/css">
	.st0{display:none;}
	.st1{fill:none;}
</style>
    <g id="Konstrukcia" class="st0">
</g>
    <g id="FU">
	<rect x="0" class="st1" width="485.43" height="276.38"/>
        <g>
		<path d="M205.51,70.87H70.86v88.58c0,25.4,20.66,46.06,46.06,46.06h42.52c25.4,0,46.06-20.66,46.06-46.06L205.51,70.87z
			 M77.95,77.95h120.47v35.43H155.9v42.52h-35.43v-42.52H77.95V77.95z M198.42,159.45c0,21.49-17.48,38.98-38.98,38.98h-42.52
			c-21.49,0-38.98-17.48-38.98-38.98v-38.98l35.43,0v42.52h49.61v-42.52h35.43V159.45z"/>
            <g>
			<path d="M267.42,112.68h-16.5v14.88h-5.87V92.12h23.49v5.11h-17.62v10.38h16.5V112.68z"/>
                <path d="M289.44,127.56l-0.25-2.94c-1.38,2.33-4.17,3.49-8.35,3.49c-3.17,0-5.48-0.73-6.91-2.2c-1.44-1.47-2.15-3.43-2.15-5.9
				c0-5.43,3.24-8.15,9.72-8.15h7.34v-2.03c0-3.58-1.82-5.37-5.47-5.37c-1.79,0-3.16,0.35-4.13,1.04c-0.96,0.69-1.44,1.59-1.44,2.71
				v0.41h-5.26v-0.41c0-2.36,0.92-4.31,2.76-5.85c1.84-1.54,4.58-2.3,8.23-2.3c7.26,0,10.88,3.32,10.88,9.97v17.52H289.44z
				 M282.36,123.76c2.19,0,3.82-0.52,4.89-1.57c1.06-1.05,1.59-2.46,1.59-4.25v-1.97h-6.48c-3.27,0-4.91,1.28-4.91,3.85
				C277.45,122.45,279.08,123.76,282.36,123.76z"/>
                <path d="M306.81,119.86v7.7h-5.57V90.6h5.57v22.01l10.78-11.99h6.63l-10.24,11.32l10.9,15.62h-6.58l-8-11.55L306.81,119.86z"/>
                <path d="M346.35,127.56l-0.3-3.54c-1.65,2.73-4.4,4.1-8.25,4.1c-2.94,0-5.25-0.89-6.94-2.66c-1.69-1.77-2.53-4.09-2.53-6.96
				v-17.87h5.57v16.55c0,3.98,1.87,5.97,5.62,5.97c4.12,0,6.18-2.38,6.18-7.14v-15.39h5.62v26.93H346.35z"/>
                <path d="M364.06,127.56h-5.62V90.6h5.62V127.56z"/>
                <path d="M385.78,122.9v4.66h-3.49c-3.71,0-6.27-0.75-7.67-2.25c-1.4-1.5-2.1-3.64-2.1-6.4v-13.87h-3.7v-4.3h3.7v-6.88h5.62v6.88
				h6.94v4.3h-6.94v13.52c0,1.52,0.36,2.62,1.09,3.32c0.73,0.69,2.03,1.04,3.92,1.04H385.78z"/>
                <path d="M406.74,127.56l-0.25-2.94c-1.38,2.33-4.17,3.49-8.35,3.49c-3.17,0-5.48-0.73-6.91-2.2c-1.44-1.47-2.15-3.43-2.15-5.9
				c0-5.43,3.24-8.15,9.72-8.15h7.34v-2.03c0-3.58-1.82-5.37-5.47-5.37c-1.79,0-3.16,0.35-4.13,1.04c-0.96,0.69-1.44,1.59-1.44,2.71
				v0.41h-5.26v-0.41c0-2.36,0.92-4.31,2.76-5.85c1.84-1.54,4.58-2.3,8.23-2.3c7.26,0,10.88,3.32,10.88,9.97v17.52H406.74z
				 M399.65,123.76c2.19,0,3.82-0.52,4.89-1.57c1.06-1.05,1.59-2.46,1.59-4.25v-1.97h-6.48c-3.27,0-4.91,1.28-4.91,3.85
				C394.74,122.45,396.38,123.76,399.65,123.76z"/>
                <path d="M262.26,184.26l-0.3-3.54c-1.65,2.73-4.4,4.1-8.25,4.1c-2.94,0-5.25-0.89-6.94-2.66c-1.69-1.77-2.53-4.09-2.53-6.96
				v-17.87h5.57v16.55c0,3.98,1.87,5.97,5.62,5.97c4.12,0,6.18-2.38,6.18-7.14v-15.39h5.62v26.93H262.26z"/>
                <path d="M279.87,184.26h-5.57v-26.93h4.96l0.3,3.59c1.59-2.77,4.32-4.15,8.2-4.15c4.12,0,6.94,1.69,8.46,5.06
				c0.67-1.59,1.8-2.83,3.37-3.72c1.57-0.89,3.45-1.34,5.64-1.34c3,0,5.33,0.94,6.99,2.81c1.65,1.87,2.48,4.36,2.48,7.47v17.21
				h-5.57v-15.9c0-4.42-1.87-6.63-5.62-6.63c-4.15,0-6.23,2.38-6.23,7.14v15.39h-5.57v-15.9c0-4.42-1.87-6.63-5.62-6.63
				c-4.15,0-6.23,2.38-6.23,7.14V184.26z"/>
                <path d="M343.36,176.46c0,1.01-0.16,1.97-0.48,2.86c-0.32,0.89-0.86,1.77-1.62,2.63c-0.76,0.86-1.91,1.55-3.44,2.08
				c-1.54,0.52-3.38,0.78-5.54,0.78c-2.19,0-4.08-0.3-5.67-0.91c-1.59-0.61-2.79-1.44-3.62-2.51c-0.83-1.06-1.43-2.18-1.8-3.37
				c-0.37-1.18-0.56-2.46-0.56-3.85v-6.63c0-2.97,0.92-5.51,2.76-7.62c1.84-2.11,4.78-3.16,8.83-3.16c2.06,0,3.86,0.31,5.39,0.94
				c1.54,0.62,2.72,1.48,3.54,2.56c0.83,1.08,1.43,2.23,1.82,3.44c0.39,1.21,0.58,2.5,0.58,3.85v4.81h-17.42v2.38
				c0,1.65,0.48,3.03,1.44,4.13c0.96,1.1,2.52,1.65,4.68,1.65c2.09,0,3.59-0.41,4.51-1.24c0.91-0.83,1.37-1.81,1.37-2.96v-0.41h5.21
				V176.46z M326.14,166.74v1.52h12.05v-1.52c0-1.59-0.48-2.94-1.44-4.05c-0.96-1.11-2.49-1.67-4.58-1.67
				c-2.13,0-3.66,0.56-4.61,1.67C326.62,163.81,326.14,165.16,326.14,166.74z"/>
                <path d="M355.1,184.26h-5.57v-26.93h4.96l0.3,3.65c1.62-2.8,4.42-4.2,8.4-4.2c3.04,0,5.41,0.95,7.11,2.83
				c1.7,1.89,2.56,4.37,2.56,7.44v17.21h-5.62v-15.9c0-4.42-1.92-6.63-5.77-6.63c-2.26,0-3.89,0.66-4.89,1.97
				c-1,1.32-1.49,3.04-1.49,5.16V184.26z"/>
                <path d="M385.38,184.26h-5.62v-26.93h5.62V184.26z M389.93,146.65l-5.21,7.29h-4.56l3.59-7.29H389.93z"/>
		</g>
	</g>
        <g>
	</g>
        <g>
	</g>
        <g>
	</g>
        <g>
	</g>
        <g>
	</g>
        <g>
	</g>
</g>
</svg>
